Coordinates
version=1
nRows=13
nColumns=22
inDegrees=yes

Units are S.I. units (second, meters, Newtons, ...)
If the header above contains a line with 'inDegrees', this indicates whether rotational values are in degrees (yes) or radians (no).

endheader
time	pelvis_tilt	pelvis_list	pelvis_rotation	pelvis_tx	pelvis_ty	pelvis_tz	hip_flexion_r	hip_adduction_r	hip_rotation_r	knee_angle_r	ankle_angle_r	subtalar_angle_r	hip_flexion_l	hip_adduction_l	hip_rotation_l	knee_angle_l	ankle_angle_l	subtalar_angle_l	lumbar_extension	lumbar_bending	lumbar_rotation
      0.01000000	     -1.55390184	     -4.34126092	     -5.73869691	     -1.70083731	      1.01410918	     -0.04212150	      1.06564055	      1.22242135	     -4.51234455	    -11.01178838	      7.84475400	      2.79933809	     -2.01977179	     -8.07912611	    -16.94796869	     -8.52059206	     10.22096211	     -0.58472776	     -3.06221703	      1.48230648	     -0.82348279
      0.02000000	     -1.55348030	     -4.34133730	     -5.73187755	     -1.70083478	      1.01410511	     -0.04209916	      1.06538938	      1.22428098	     -4.51117744	    -11.01354836	      7.84590783	      2.80169983	     -2.01977645	     -8.08170628	    -16.94714095	     -8.51895497	     10.22100301	     -0.58364986	     -3.06627559	      1.47818892	     -0.82208502
      0.03000000	     -1.55283533	     -4.34123220	     -5.72473921	     -1.70083327	      1.01410263	     -0.04207357	      1.06558976	      1.22621756	     -4.51091662	    -11.01697018	      7.84847053	      2.80444367	     -2.01963559	     -8.08387800	    -16.94480036	     -8.51724169	     10.22091791	     -0.58217359	     -3.07256393	      1.47441861	     -0.82089123
      0.04000000	     -1.55191603	     -4.34092415	     -5.71746724	     -1.70083400	      1.01409792	     -0.04204352	      1.06645434	      1.22782631	     -4.51205751	    -11.02177272	      7.85266443	      2.80738194	     -2.01973565	     -8.08632136	    -16.94082016	     -8.51576124	     10.22075740	     -0.58037428	     -3.08105302	      1.47016989	     -0.82038425
      0.05000000	     -1.54998918	     -4.34028738	     -5.70892101	     -1.70083679	      1.01409290	     -0.04201087	      1.06743487	      1.22937867	     -4.51554558	    -11.02902349	      7.85959985	      2.81096385	     -2.02016060	     -8.08852133	    -16.93428339	     -8.51483013	     10.22053609	     -0.57791402	     -3.09273428	      1.46490919	     -0.82104755
      0.06000000	     -1.53311751	     -4.33632632	     -5.69313643	     -1.70083481	      1.01410070	     -0.04200578	      1.06165758	      1.22244722	     -4.54181338	    -11.05629253	      7.89216116	      2.82603298	     -2.03198660	     -8.08481421	    -16.90244433	     -8.52254335	     10.21982488	     -0.56694750	     -3.12066779	      1.45952697	     -0.83469524
      0.07000000	     -1.53584275	     -4.33535624	     -5.68870399	     -1.70082557	      1.01409051	     -0.04196595	      1.06252300	      1.22445297	     -4.54345166	    -11.05405473	      7.89325710	      2.82720608	     -2.03065946	     -8.08647218	    -16.90299694	     -8.51813134	     10.22044633	     -0.56647468	     -3.12617840	      1.45422015	     -0.83537617
      0.08000000	     -1.53728056	     -4.33455900	     -5.68415260	     -1.70080960	      1.01408125	     -0.04192582	      1.06272102	      1.22639539	     -4.54552308	    -11.05430976	      7.89468242	      2.82838762	     -2.03031427	     -8.08840539	    -16.90246925	     -8.51550561	     10.22081141	     -0.56591187	     -3.13101084	      1.44839110	     -0.83650617
      0.09000000	     -1.53796831	     -4.33401641	     -5.67978635	     -1.70079444	      1.01407350	     -0.04188494	      1.06294474	      1.22856247	     -4.54831774	    -11.05629957	      7.89656164	      2.82965718	     -2.03040302	     -8.09055370	    -16.90095055	     -8.51374367	     10.22100732	     -0.56523447	     -3.13678568	      1.44171307	     -0.83824024
      0.10000000	     -1.53771233	     -4.33373527	     -5.67535145	     -1.70077748	      1.01406711	     -0.04184379	      1.06289343	      1.23085566	     -4.55205710	    -11.06035873	      7.89900329	      2.83110582	     -2.03138417	     -8.09292532	    -16.89839362	     -8.51278156	     10.22100052	     -0.56439617	     -3.14302051	      1.43425648	     -0.84033978
      0.11000000	     -1.52183963	     -4.33071719	     -5.66218234	     -1.70076803	      1.01408080	     -0.04184115	      1.05729593	      1.22465005	     -4.58125682	    -11.08586092	      7.91844184	      2.84076415	     -2.04460086	     -8.08876171	    -16.87656264	     -8.51584065	     10.21888184	     -0.55776835	     -3.16873703	      1.42637809	     -0.85112350
      0.12000000	     -1.52338349	     -4.33101709	     -5.66017222	     -1.70074299	      1.01407460	     -0.04179906	      1.05657671	      1.22783723	     -4.58235479	    -11.08471455	      7.91929399	      2.84159760	     -2.04532992	     -8.09157353	    -16.87660810	     -8.51310975	     10.21911336	     -0.55754393	     -3.17032591	      1.41877928	     -0.85132561
      0.13000000	     -1.52386602	     -4.33171885	     -5.65765105	     -1.70071094	      1.01407029	     -0.04176022	      1.05508905	      1.23090794	     -4.58339975	    -11.08551303	      7.92045784	      2.84246698	     -2.04733279	     -8.09446102	    -16.87624679	     -8.51100811	     10.21907386	     -0.55720996	     -3.17098762	      1.41130732	     -0.84969684
